<svg xmlns="http://www.w3.org/2000/svg" viewBox="0 0 200 580">
  <!-- Silueta masculina - figura de moda / maniquí estilizado -->
  <ellipse cx="100" cy="32" rx="17" ry="21" fill="#000"/>
  <path fill="#000" d="M92 53 L88 56 L88 68 Q100 76 112 68 L112 56 L108 53 L92 53 Z"/>
  <path fill="#000" d="M112 68 Q140 72 158 82 Q172 92 172 108 L172 118 Q174 148 172 178 Q170 198 166 212 L166 220 L168 222 L168 252 Q166 292 164 332 Q162 372 160 412 Q158 452 156 478 Q154 498 146 508 Q138 518 126 514 L124 478 Q122 438 122 398 Q122 358 124 318 Q124 278 122 238 L122 220 Q100 232 78 220 L78 238 Q76 278 76 318 Q76 358 74 398 Q74 438 76 478 L74 514 Q62 518 54 508 Q46 498 44 478 Q42 452 40 412 Q38 372 36 332 Q34 292 32 252 L32 222 L34 220 L34 212 Q30 198 28 178 Q26 148 28 118 L28 108 Q28 92 42 82 Q60 72 88 68 L112 68 Z"/>
  <path fill="#000" d="M28 108 Q20 122 18 148 Q16 178 18 208 Q20 238 22 268 L24 268 Q22 248 24 228 Q26 208 28 188 L28 108 Z"/>
  <path fill="#000" d="M34 116 Q30 136 28 166 Q26 196 28 226 Q30 256 32 268 L32 258 Q30 238 32 218 Q34 198 34 178 L34 116 Z"/>
  <path fill="#000" d="M172 108 Q180 122 182 148 Q184 178 182 208 Q180 238 178 268 L176 268 Q178 248 176 228 Q174 208 172 188 L172 108 Z"/>
  <path fill="#000" d="M166 116 Q170 136 172 166 Q174 196 172 226 Q170 256 168 268 L168 258 Q170 238 168 218 Q166 198 166 178 L166 116 Z"/>
</svg>
