<?xml version="1.0" encoding="UTF-8"?>
<svg id="Capa_1" data-name="Capa 1" xmlns="http://www.w3.org/2000/svg" viewBox="0 0 512 512">
  <defs>
    <style>
      .cls-1 {
        fill: #0a1f2c;
      }
    </style>
  </defs>
  <g id="BMrigT.tif">
    <g>
      <path class="cls-1" d="M162.21,67.25c5.39-6.1,11.85-11.59,19-16.43,61.98-41.91,148.37-13.24,173.39,57.26,28.59,80.56-3.41,191.43-92.49,209.99-14.39,3-48.8,10.6-60.35-8.28-1.45-3.64,1.24-6.47,5.06-5.59,27.06,15.61,59.94,3.5,85.63-11.67,53.41-31.52,72.56-105.09,57.56-165.1-18.23-72.94-103.89-107.8-167.53-67.75-15.01,9.44-26.57,22.17-29.94,38.51-1.39,6.72-.88,13.7.71,20.38,4.41,18.61,3.63,21.89.44,15.59-11.05-21.84-7.69-48.59,8.52-66.93Z"/>
      <path class="cls-1" d="M207.43,480.67c-35.39-112.8-24.44-238.05-22.12-353.83,12.56,78.01-4.21,165.13,7.34,246.36,3.73,26.21,4.48,46.63,14.27,71.34,3.5,8.82,15.73,32.76.52,36.14Z"/>
    </g>
  </g>
</svg>
